#!OML:ASF G:\JayActor3\Patient Classification 1\Patient 1\Session 6\male.ASF
:FULLY-SPECIFIED
:DEGREES
1842
root -36.5638 16.5156 -4.49537 536.568 7.18565 -538.35
lowerback 6.60417 -3.76218 -4.16432
upperback -2.94232 -5.44067 -1.23144
thorax -6.51451 -2.49938 1.68115
lowerneck 8.06984 13.5047 5.71092
upperneck -1.86356 18.7216 1.7166
head -1.55051 9.29634 -0.998846
rclavicle 3.20043e-014 -1.19271e-014
rhumerus -52.3462 -4.05921 -68.4651
rradius 29.4088
rwrist 9.40164
rhand -8.25013 -0.589716
rfingers 7.12502
rthumb 17.6682 -29.807
lclavicle 3.20043e-014 -1.19271e-014
lhumerus -30.2668 -8.39838 69.3985
lradius 47.1394
lwrist 30.0283
lhand -14.4436 8.40849
lfingers 7.12502
lthumb 11.7013 38.0617
rfemur -36.6037 -4.61305 19.9317
rtibia 54.0664
rfoot -7.63678 -4.88642
rtoes -21.9779
lfemur 20.1657 15.3412 -19.5173
ltibia -2.8625e-014
lfoot -13.3032 18.8881
ltoes -3.02691
1843
root -36.5643 16.5118 -4.55697 536.678 7.03315 -538.554
lowerback 6.62592 -3.86615 -4.39318
upperback -2.95558 -5.60003 -1.20927
thorax -6.50945 -2.56661 1.84926
lowerneck 8.12043 13.4982 5.66082
upperneck -1.94262 18.7105 1.68569
head -1.58678 9.28771 -1.00992
rclavicle 6.26172e-015 2.3059e-014
rhumerus -52.4029 -4.28172 -68.1427
rradius 28.9198
rwrist 9.80943
rhand -8.17476 -0.582614
rfingers 7.12502
rthumb 17.7407 -29.7933
lclavicle 6.26172e-015 2.3059e-014
lhumerus -30.3744 -8.52801 69.9514
lradius 47.104
lwrist 29.9119
lhand -14.4112 8.39587
lfingers 7.12502
lthumb 11.7326 38.0473
rfemur -36.5872 -4.11788 19.655
rtibia 52.2276
rfoot -8.23836 -5.05224
rtoes -21.4658
lfemur 20.2596 15.4857 -19.6427
ltibia 5.08889e-014
lfoot -13.4227 18.5432
ltoes -3.28084
1844
root -36.5632 16.5092 -4.61818 536.784 6.86022 -538.762
lowerback 6.65049 -3.96217 -4.62148
upperback -2.95939 -5.74913 -1.19922
thorax -6.49663 -2.62935 2.00291
lowerneck 8.14619 13.4927 5.61503
upperneck -1.97535 18.701 1.68782
head -1.60654 9.28144 -1.00739
rclavicle 1.74931e-014 6.36111e-015
rhumerus -52.4548 -4.55665 -67.8227
rradius 28.4338
rwrist 10.2242
rhand -8.0853 -0.576306
rfingers 7.12502
rthumb 17.8268 -29.7792
lclavicle 1.74931e-014 6.36111e-015
lhumerus -30.4676 -8.706 70.5027
lradius 47.0525
lwrist 29.8229
lhand -14.3311 8.39522
lfingers 7.12502
lthumb 11.8099 38.0422
rfemur -36.5152 -3.49131 19.3134
rtibia 50.3777
rfoot -8.94307 -5.32182
rtoes -20.8875
lfemur 20.3507 15.6079 -19.7677
ltibia 4.13472e-014
lfoot -13.5299 18.199
ltoes -3.53086
1845
root -36.5609 16.5073 -4.67941 536.883 6.67108 -538.966
lowerback 6.6776 -4.04244 -4.82456
upperback -2.95019 -5.87553 -1.2094
thorax -6.47632 -2.68281 2.11869
lowerneck 8.14001 13.4762 5.60134
upperneck -1.96627 18.6786 1.70682
head -1.60617 9.27038 -0.998744
rclavicle -6.39093e-014 -8.74653e-015
rhumerus -52.5193 -4.91433 -67.5028
rradius 27.9641
rwrist 10.6307
rhand -7.98216 -0.580761
rfingers 7.12502
rthumb 17.926 -29.7746
lclavicle -6.39093e-014 -8.74653e-015
lhumerus -30.5293 -8.93959 71.0403
lradius 46.9741
lwrist 29.7419
lhand -14.2222 8.40444
lfingers 7.12502
lthumb 11.9149 38.0454
rfemur -36.3909 -2.74936 18.9224
rtibia 48.5357
rfoot -9.73597 -5.72288
rtoes -20.3933
lfemur 20.4488 15.7111 -19.8802
ltibia -4.45278e-014
lfoot -13.6283 17.8539
ltoes -3.76685
1846
root -36.5576 16.5059 -4.7412 536.967 6.46523 -539.169
lowerback 6.70502 -4.10852 -5.00377
upperback -2.92472 -5.9811 -1.24033
thorax -6.44407 -2.72808 2.19675
lowerneck 8.12261 13.4466 5.64709
upperneck -1.93793 18.6424 1.70083
head -1.58993 9.25389 -1.00247
rclavicle 1.69961e-014 -3.26007e-014
rhumerus -52.5978 -5.34149 -67.1888
rradius 27.5224
rwrist 11.0067
rhand -7.84726 -0.591334
rfingers 7.12502
rthumb 18.0558 -29.7733
lclavicle 1.69961e-014 -3.26007e-014
lhumerus -30.5683 -9.23742 71.5681
lradius 46.8777
lwrist 29.6713
lhand -14.087 8.41734
lfingers 7.12502
lthumb 12.0452 38.0507
rfemur -36.2156 -1.89919 18.4723
rtibia 46.7257
rfoot -10.6247 -6.23544
rtoes -19.8462
lfemur 20.5643 15.7953 -19.9829
ltibia 4.13472e-014
lfoot -13.7164 17.5054
ltoes -3.99636
1847
root -36.5534 16.5044 -4.80398 537.025 6.24281 -539.351
lowerback 6.74717 -4.16572 -5.14256
upperback -2.88412 -6.07216 -1.2758
thorax -6.40917 -2.76867 2.24693
lowerneck 8.09285 13.4181 5.70405
upperneck -1.87711 18.6072 1.69144
head -1.5596 9.23931 -1.00571
rclavicle -2.62396e-014 1.51076e-014
rhumerus -52.6947 -5.80173 -66.8779
rradius 27.1217
rwrist 11.3407
rhand -7.68286 -0.617665
rfingers 7.12502
rthumb 18.214 -29.7849
lclavicle -2.62396e-014 1.51076e-014
lhumerus -30.6208 -9.59975 72.0904
lradius 46.7871
lwrist 29.6323
lhand -13.9187 8.44261
lfingers 7.12502
lthumb 12.2075 38.0664
rfemur -35.9813 -0.948286 17.9898
rtibia 44.9701
rfoot -11.5885 -6.87715
rtoes -19.3534
lfemur 20.7173 15.8593 -20.05
ltibia 1.90833e-014
lfoot -13.798 17.1498
ltoes -4.23344
1848
root -36.5489 16.5024 -4.86798 537.059 6.00612 -539.513
lowerback 6.79835 -4.21568 -5.23735
upperback -2.83107 -6.15018 -1.3138
thorax -6.37147 -2.80537 2.26924
lowerneck 8.07281 13.3858 5.77494
upperneck -1.81189 18.568 1.66548
head -1.52675 9.22324 -1.016
rclavicle -5.08889e-014 -2.14687e-014
rhumerus -52.8121 -6.26674 -66.5844
rradius 26.7709
rwrist 11.6153
rhand -7.47484 -0.658697
rfingers 7.12502
rthumb 18.4141 -29.8071
lclavicle -5.08889e-014 -2.14687e-014
lhumerus -30.6859 -10.015 72.6263
lradius 46.6976
lwrist 29.6054
lhand -13.7364 8.48434
lfingers 7.12502
lthumb 12.3833 38.0976
rfemur -35.7044 0.0749927 17.4818
rtibia 43.2934
rfoot -12.6186 -7.6078
rtoes -18.8305
lfemur 20.9058 15.9058 -20.0838
ltibia -1.59028e-014
lfoot -13.8737 16.7914
ltoes -4.48263
1849
root -36.5441 16.4997 -4.93327 537.07 5.7607 -539.656
lowerback 6.85638 -4.25827 -5.2895
upperback -2.76441 -6.21488 -1.35593
thorax -6.32877 -2.83803 2.26258
lowerneck 8.04837 13.355 5.85784
upperneck -1.73159 18.5309 1.63074
head -1.48631 9.20902 -1.02917
rclavicle 1.95803e-014 2.22639e-014
rhumerus -52.9453 -6.71939 -66.3257
rradius 26.473
rwrist 11.8252
rhand -7.2369 -0.712143
rfingers 7.12502
rthumb 18.643 -29.8388
lclavicle 1.95803e-014 2.22639e-014
lhumerus -30.756 -10.4638 73.1668
lradius 46.6027
lwrist 29.5748
lhand -13.5305 8.54356
lfingers 7.12502
lthumb 12.5818 38.1447
rfemur -35.3969 1.15786 16.9556
rtibia 41.7151
rfoot -13.7013 -8.39572
rtoes -18.2999
lfemur 21.1292 15.9406 -20.0871
ltibia 5.08889e-014
lfoot -13.9435 16.4305
ltoes -4.75055
1850
root -36.5393 16.4959 -4.99967 537.07 5.51137 -539.783
lowerback 6.91418 -4.30236 -5.31006
upperback -2.69491 -6.27844 -1.38593
thorax -6.28481 -2.87167 2.25104
lowerneck 8.03971 13.3414 5.89769
upperneck -1.64216 18.514 1.61162
head -1.45061 9.20486 -1.03359
rclavicle 7.48424e-014 6.36111e-015
rhumerus -53.0811 -7.10005 -66.11
rradius 26.2289
rwrist 11.9645
rhand -6.97329 -0.776528
rfingers 7.12502
rthumb 18.8965 -29.8786
lclavicle 7.48424e-014 6.36111e-015
lhumerus -30.8283 -10.8361 73.7117
lradius 46.4639
lwrist 29.4825
lhand -13.288 8.60142
lfingers 7.12502
lthumb 12.8156 38.188
rfemur -35.0845 2.26018 16.4288
rtibia 40.2524
rfoot -14.7852 -9.2111
rtoes -17.857
lfemur 21.3743 15.9687 -20.0653
ltibia 3.81667e-014
lfoot -14.0138 16.0631
ltoes -5.03159
1851
root -36.5347 16.4911 -5.06703 537.066 5.26311 -539.902
lowerback 6.96553 -4.34224 -5.30012
upperback -2.62115 -6.33302 -1.41593
thorax -6.23642 -2.90249 2.22119
lowerneck 8.03152 13.3279 5.94211
upperneck -1.5441 18.4974 1.58546
head -1.41113 9.20127 -1.04016
rclavicle 1.76918e-014 1.03368e-014
rhumerus -53.2179 -7.42718 -65.9489
rradius 26.0335
rwrist 12.0473
rhand -6.70237 -0.839081
rfingers 7.12502
rthumb 19.157 -29.9156
lclavicle 1.76918e-014 1.03368e-014
lhumerus -30.8822 -11.1464 74.2468
lradius 46.2727
lwrist 29.3231
lhand -13.0154 8.65294
lfingers 7.12502
lthumb 13.0783 38.2229
rfemur -34.7826 3.36355 15.9028
rtibia 38.9169
rfoot -15.8695 -9.99007
rtoes -17.4217
lfemur 21.6309 15.9958 -20.0298
ltibia 1.90833e-014
lfoot -14.0768 15.6958
ltoes -5.3435
1852
root -36.5303 16.4849 -5.13493 537.057 5.01687 -540.021
lowerback 7.01385 -4.37475 -5.26751
upperback -2.54353 -6.37539 -1.44932
thorax -6.18587 -2.92842 2.17378
lowerneck 8.0237 13.3112 5.99245
upperneck -1.44685 18.4767 1.55263
head -1.37096 9.1958 -1.04942
rclavicle 1.51076e-014 2.14687e-014
rhumerus -53.3523 -7.70326 -65.8458
rradius 25.8823
rwrist 12.0846
rhand -6.43957 -0.899351
rfingers 7.12502
rthumb 19.4097 -29.9506
lclavicle 1.51076e-014 2.14687e-014
lhumerus -30.9427 -11.4631 74.7803
lradius 46.0733
lwrist 29.1484
lhand -12.741 8.69861
lfingers 7.12502
lthumb 13.3428 38.2514
rfemur -34.4989 4.43543 15.3849
rtibia 37.717
rfoot -16.9288 -10.6743
rtoes -16.9535
lfemur 21.9027 16.0238 -19.9901
ltibia -4.13472e-014
lfoot -14.1497 15.3167
ltoes -5.62024
1853
root -36.526 16.4772 -5.20423 537.064 4.80774 -540.13
lowerback 7.02898 -4.39424 -5.20074
upperback -2.46991 -6.39496 -1.48332
thorax -6.12591 -2.94479 2.10198
lowerneck 8.02557 13.2892 6.04453
upperneck -1.35533 18.4502 1.51862
head -1.33426 9.18714 -1.06035
rclavicle 2.10712e-014 4.77083e-015
rhumerus -53.4814 -7.91632 -65.8056
rradius 25.7693
rwrist 12.0862
rhand -6.19806 -0.952299
rfingers 7.12502
rthumb 19.642 -29.98
lclavicle 2.10712e-014 4.77083e-015
lhumerus -30.9913 -11.7079 75.2986
lradius 45.8206
lwrist 28.9041
lhand -12.4579 8.72797
lfingers 7.12502
lthumb 13.6157 38.2627
rfemur -34.2579 5.44479 14.9166
rtibia 36.6564
rfoot -17.8873 -11.2511
rtoes -16.6504
lfemur 22.1659 16.0851 -19.9344
ltibia 2.22639e-014
lfoot -14.2004 14.9465
ltoes -5.97087
